HIERARCHY
ROOT Hips
{
    OFFSET 0.000000 0.000000 0.000000
    CHANNELS 6 Xposition Yposition Zposition Zrotation Xrotation Yrotation
    JOINT Spine
    {
        OFFSET -0.000000 8.339920 0.000000
        CHANNELS 3 Zrotation Xrotation Yrotation
        JOINT Spine1
        {
            OFFSET -0.000000 25.214485 0.000000
            CHANNELS 3 Zrotation Xrotation Yrotation
            JOINT Neck
            {
                OFFSET -0.000000 25.110935 2.282812
                CHANNELS 3 Zrotation Xrotation Yrotation
                JOINT Head
                {
                    OFFSET -0.000000 14.238888 -2.034127
                    CHANNELS 3 Zrotation Xrotation Yrotation
                    End Site
                    {
                        OFFSET -0.000000 25.426584 0.000000
                    }
                }
            }
            JOINT LeftShoulder
            {
                OFFSET 4.025024 23.158985 -0.185822
                CHANNELS 3 Zrotation Xrotation Yrotation
                JOINT LeftArm
                {
                    OFFSET 11.674057 0.000000 0.000000
                    CHANNELS 3 Zrotation Xrotation Yrotation
                    JOINT LeftForeArm
                    {
                        OFFSET 31.688633 0.000000 0.000000
                        CHANNELS 3 Zrotation Xrotation Yrotation
                        JOINT LeftHand
                        {
                            OFFSET 29.704493 0.000000 0.000000
                            CHANNELS 3 Zrotation Xrotation Yrotation
                            End Site
                            {
                                OFFSET 15.255952 0.000000 0.000000
                            }
                        }
                    }
                }
            }
            JOINT RightShoulder
            {
                OFFSET -4.099539 23.158985 -0.185822
                CHANNELS 3 Zrotation Xrotation Yrotation
                JOINT RightArm
                {
                    OFFSET -11.674057 0.000000 0.000000
                    CHANNELS 3 Zrotation Xrotation Yrotation
                    JOINT RightForeArm
                    {
                        OFFSET -31.688633 0.000000 0.000000
                        CHANNELS 3 Zrotation Xrotation Yrotation
                        JOINT RightHand
                        {
                            OFFSET -29.704493 0.000000 0.000000
                            CHANNELS 3 Zrotation Xrotation Yrotation
                            End Site
                            {
                                OFFSET -15.255952 0.000000 0.000000
                            }
                        }
                    }
                }
            }
        }
    }
    JOINT LeftUpLeg
    {
        OFFSET 10.170634 0.000000 0.000000
        CHANNELS 3 Zrotation Xrotation Yrotation
        JOINT LeftLeg
        {
            OFFSET -0.000000 -41.352962 0.000000
            CHANNELS 3 Zrotation Xrotation Yrotation
            JOINT LeftFoot
            {
                OFFSET -0.000000 -47.535004 0.000000
                CHANNELS 3 Zrotation Xrotation Yrotation
                JOINT LeftToeBase
                {
                    OFFSET -0.000000 -6.610912 15.255952
                    CHANNELS 3 Zrotation Xrotation Yrotation
                    End Site
                    {
                        OFFSET -0.000000 0.000000 4.068254
                    }
                }
            }
        }
    }
    JOINT RightUpLeg
    {
        OFFSET -10.170634 0.000000 0.000000
        CHANNELS 3 Zrotation Xrotation Yrotation
        JOINT RightLeg
        {
            OFFSET -0.000000 -41.352962 0.000000
            CHANNELS 3 Zrotation Xrotation Yrotation
            JOINT RightFoot
            {
                OFFSET -0.000000 -47.535004 0.000000
                CHANNELS 3 Zrotation Xrotation Yrotation
                JOINT RightToeBase
                {
                    OFFSET -0.000000 -6.610912 15.255952
                    CHANNELS 3 Zrotation Xrotation Yrotation
                    End Site
                    {
                        OFFSET -0.000000 0.000000 4.068254
                    }
                }
            }
        }
    }
}
MOTION
Frames:    4
Frame Time:    0.008333
33.673729    92.234253    48.025387    3.844797    1.681004    79.404854    -0.482412    -1.142075    -3.838114    13.301384    0.896231    -3.937804    -21.936617    30.245892    -3.633737    -1.027436    -17.857374    -7.139220    20.512674    -4.513747    -8.769146    23.515543    -11.135042    -35.786053    55.216496    -24.357477    -51.291332    25.847628    2.240895    -8.833405    -7.555243    3.958533    7.054218    55.946915    68.585701    15.901254    -0.791418    -7.546279    18.533091    -3.407786    -7.483893    2.216322    1.942740    -2.826009    0.726170    -7.465367    25.651312    12.325178    -5.104424    -15.809676    7.103920    0.000000    0.000000    0.000000    1.215824    -5.385916    1.634081    -2.676179    26.558716    -2.901655    1.630491    -17.875759    0.343278    0.000000    0.000000    0.000000    
33.663567    92.066345    48.095558    3.915656    1.593918    79.507645    -0.567468    -1.127288    -3.902828    13.260733    1.018256    -4.015610    -21.709557    31.874525    -3.743461    -1.140447    -20.261450    -7.647237    20.453808    -4.508257    -8.876410    23.142580    -11.567124    -35.489834    55.030674    -24.531183    -51.429867    26.368858    2.084146    -8.397997    -7.527961    3.912133    7.089435    55.650784    68.726959    16.167763    -0.690790    -7.512415    18.507053    -3.276550    -7.464226    2.226026    2.111760    -3.003498    0.596212    -7.641942    26.156445    12.454019    -4.926249    -16.373268    7.123497    0.000000    0.000000    0.000000    1.354363    -5.489464    1.711857    -2.616968    26.998373    -2.947092    1.451326    -18.359940    0.129279    0.000000    0.000000    0.000000    
33.650738    91.913620    48.166485    3.941772    1.513219    79.632133    -0.622787    -1.135446    -3.979211    13.151393    1.080175    -4.097564    -21.634083    31.612728    -3.753986    -1.343580    -20.025314    -7.647242    20.543243    -4.706300    -8.917758    22.686094    -11.730272    -35.173275    54.990940    -24.553881    -51.251488    26.807095    2.004095    -7.869114    -7.492324    3.893560    7.106960    55.375282    68.873428    16.444571    -0.666131    -7.458408    18.449007    -3.120062    -7.412008    2.244478    2.281794    -3.225351    0.451281    -7.814692    26.639984    12.636565    -4.824633    -16.861153    7.086311    0.000000    0.000000    0.000000    1.473022    -5.587069    1.735041    -2.533056    27.334845    -2.935253    1.218957    -18.807413    -0.140356    0.000000    0.000000    0.000000    
33.643116    91.765503    48.254196    3.967014    1.386375    79.765671    -0.689594    -1.138722    -4.046253    13.155665    1.142616    -4.171173    -21.673553    31.403156    -3.687245    -1.499727    -19.772234    -7.581679    20.533943    -4.832944    -8.937396    22.290436    -11.970443    -34.741493    54.703213    -24.488939    -51.108330    26.972008    1.879789    -7.454244    -7.633678    3.915852    7.088755    55.062206    68.987892    16.920710    -0.646867    -7.300113    18.320364    -2.804095    -7.257214    2.484201    2.504937    -3.441275    0.378244    -7.956660    27.157734    12.861999    -4.750659    -17.345142    6.938128    0.000000    0.000000    0.000000    1.705650    -5.699103    1.680737    -2.594308    27.708832    -2.897086    1.073942    -19.181826    -0.335198    0.000000    0.000000    0.000000    
